<svg xmlns="http://www.w3.org/2000/svg" xmlns:xlink="http://www.w3.org/1999/xlink" width="400" zoomAndPan="magnify" viewBox="0 0 300 225" height="300" preserveAspectRatio="xMidYMid meet" version="1.2"><defs><clipPath id="67e091d5d1"><path d="M 215 164 L 281.121094 164 L 281.121094 189 L 215 189 Z M 215 164 "/></clipPath></defs><g id="6e6f61f1af"><g style="fill:#ffffff;fill-opacity:1;"><g transform="translate(108.340199, 119.772793)"><path style="stroke:none" d="M 0.453125 0.03125 C 0.378906 0.0195312 0.320312 0 0.28125 -0.03125 C 0.25 -0.0703125 0.234375 -0.117188 0.234375 -0.171875 C 0.234375 -0.234375 0.25 -0.28125 0.28125 -0.3125 C 0.320312 -0.351562 0.378906 -0.367188 0.453125 -0.359375 C 0.515625 -0.359375 0.5625 -0.335938 0.59375 -0.296875 C 0.632812 -0.265625 0.65625 -0.222656 0.65625 -0.171875 C 0.65625 -0.109375 0.632812 -0.0546875 0.59375 -0.015625 C 0.5625 0.015625 0.515625 0.03125 0.453125 0.03125 Z M 0.453125 0.03125 "/></g></g><path style=" stroke:none;fill-rule:nonzero;fill:#10879a;fill-opacity:1;" d="M 176.09375 160.570312 C 176.09375 160.570312 162.644531 161.816406 154.269531 150.683594 C 145.816406 139.441406 155.785156 132.972656 161.273438 136.949219 C 164.195312 139.070312 160.175781 142.585938 164.699219 150.550781 C 169.234375 158.519531 176.09375 160.570312 176.09375 160.570312 "/><path style=" stroke:none;fill-rule:nonzero;fill:#10879a;fill-opacity:1;" d="M 159.496094 163.058594 C 181.902344 170.042969 203.945312 168.792969 205.636719 168.691406 C 132.292969 179.503906 106.800781 148.476562 109.808594 123.90625 C 112.839844 99.328125 131.085938 97.679688 140.546875 103.03125 C 150.019531 108.382812 149.066406 121.855469 147.136719 122.953125 C 145.226562 124.050781 140.546875 120.339844 134.101562 123.359375 C 127.660156 126.382812 128.207031 133.390625 128.207031 133.390625 C 128.207031 133.390625 131.90625 129.402344 138.222656 129.949219 C 144.535156 130.5 146.585938 138.464844 143.839844 140.664062 C 141.097656 142.863281 136.15625 155.769531 159.496094 163.058594 "/><path style=" stroke:none;fill-rule:nonzero;fill:#10879a;fill-opacity:1;" d="M 178.707031 111.273438 C 181.199219 111.273438 183.230469 113.304688 183.230469 115.8125 C 183.230469 118.304688 181.199219 120.339844 178.707031 120.339844 C 176.203125 120.339844 174.175781 118.304688 174.175781 115.8125 C 174.175781 113.304688 176.203125 111.273438 178.707031 111.273438 "/><path style=" stroke:none;fill-rule:nonzero;fill:#14aac1;fill-opacity:1;" d="M 194.207031 78.585938 C 195.832031 87.78125 192.011719 92.046875 188.445312 92.046875 C 184.878906 92.046875 184.878906 88.746094 182.679688 85.453125 C 181.375 83.496094 179.101562 82.410156 177.476562 81.847656 L 178.058594 79.871094 C 180.671875 80.59375 182.769531 80.5625 184.328125 79.132812 C 187.851562 75.90625 183.601562 68.585938 174.480469 63.949219 L 176.753906 62.445312 C 179.136719 62.894531 191.96875 65.894531 194.207031 78.585938 "/><path style=" stroke:none;fill-rule:nonzero;fill:#10879a;fill-opacity:1;" d="M 174.480469 63.949219 C 183.601562 68.585938 187.851562 75.90625 184.328125 79.132812 C 182.769531 80.5625 180.671875 80.59375 178.058594 79.871094 C 169.59375 77.5625 155.828125 67.390625 138.222656 71.167969 C 115.945312 75.949219 107.503906 91.75 106.953125 92.816406 C 107.316406 91.574219 113.597656 71.695312 141.515625 62.378906 C 154.917969 57.90625 166.542969 59.917969 174.480469 63.949219 "/><path style=" stroke:none;fill-rule:nonzero;fill:#10879a;fill-opacity:1;" d="M 174.722656 89.296875 C 176.269531 96.792969 168.839844 99.175781 163.152344 95.308594 C 161.941406 94.21875 160.4375 93.121094 158.53125 92.046875 C 147.828125 86.003906 124.222656 89.023438 111.050781 106.601562 C 103.332031 116.898438 101.082031 132.476562 108.699219 146.09375 L 108.582031 146.15625 C 95.40625 126.929688 103.640625 94.242188 127.242188 81.605469 C 150.84375 68.96875 173.074219 81.332031 174.722656 89.296875 "/><path style=" stroke:none;fill-rule:nonzero;fill:#10879a;fill-opacity:1;" d="M 207 189.800781 C 221.058594 191.734375 234.410156 195.007812 246.804688 200.777344 C 245.191406 200.160156 224.15625 192.429688 185.152344 195.328125 C 144.535156 198.347656 97.601562 216.75 70.15625 188.183594 C 70.15625 188.183594 68.871094 187.382812 67.019531 186.074219 C 81.847656 194.765625 105.914062 192.570312 129.4375 190.382812 C 146.640625 188.777344 167.046875 187.46875 182.382812 187.625 C 182.394531 187.625 182.40625 187.625 182.429688 187.625 C 190.816406 188.054688 199.015625 188.710938 207 189.800781 "/><g clip-rule="nonzero" clip-path="url(#67e091d5d1)"><path style=" stroke:none;fill-rule:nonzero;fill:#14aac1;fill-opacity:1;" d="M 277.773438 183.382812 C 279.144531 185.128906 280.25 186.789062 281.121094 188.359375 C 263.632812 165.066406 225.363281 170.328125 225.363281 170.328125 L 225.351562 170.507812 C 219.03125 169.933594 215.195312 170.460938 215.195312 170.460938 C 242.785156 157.144531 267.078125 169.78125 277.773438 183.382812 "/></g><path style=" stroke:none;fill-rule:nonzero;fill:#14aac1;fill-opacity:1;" d="M 251.839844 151.371094 C 270.777344 153.574219 278.1875 164.835938 278.1875 164.835938 C 260.074219 154.671875 254.3125 160.4375 227.414062 163.734375 C 200.519531 167.035156 185.152344 165.109375 185.152344 165.109375 C 195.304688 165.109375 208.753906 164.835938 227.964844 158.242188 C 247.175781 151.652344 251.839844 151.371094 251.839844 151.371094 "/><path style=" stroke:none;fill-rule:nonzero;fill:#14aac1;fill-opacity:1;" d="M 146.71875 177.460938 C 140.644531 175.957031 134.726562 174.210938 129.066406 172.144531 L 129.050781 172.144531 C 98.953125 159.332031 79.265625 128.117188 92.386719 92.320312 C 98.390625 75.960938 108.722656 64.949219 119.886719 57.929688 C 134.785156 48.589844 151.164062 46.371094 160.726562 48.09375 C 177.46875 51.117188 176.371094 62.378906 176.371094 62.378906 C 176.371094 62.378906 176.5 62.402344 176.753906 62.445312 L 174.480469 63.949219 C 166.542969 59.917969 154.917969 57.90625 141.515625 62.378906 C 113.597656 71.695312 107.316406 91.574219 106.953125 92.816406 C 107.503906 91.75 115.945312 75.949219 138.222656 71.167969 C 155.828125 67.390625 169.59375 77.5625 178.058594 79.871094 L 177.476562 81.847656 C 176.355469 81.472656 175.546875 81.332031 175.546875 81.332031 C 189.816406 95.339844 178.5625 106.878906 172.800781 105.777344 C 168.070312 104.878906 168.703125 100.265625 163.152344 95.308594 C 168.839844 99.175781 176.269531 96.792969 174.722656 89.296875 C 173.074219 81.332031 150.84375 68.96875 127.242188 81.605469 C 103.640625 94.242188 95.40625 126.929688 108.582031 146.15625 L 108.699219 146.09375 C 114.082031 155.726562 124.410156 164.386719 141.238281 169.507812 C 146.605469 171.144531 151.734375 172.328125 156.664062 173.199219 C 197.820312 184.394531 248.429688 178.789062 278.605469 213.773438 L 278.429688 213.925781 C 274.488281 209.46875 262.105469 198.492188 231.117188 191.625 C 223.9375 190.03125 215.878906 188.757812 207.316406 187.546875 C 188.277344 184.855469 166.730469 182.449219 146.71875 177.460938 "/><path style=" stroke:none;fill-rule:nonzero;fill:#14aac1;fill-opacity:1;" d="M 184.746094 41.777344 C 187.09375 41.777344 188.992188 43.675781 188.992188 46.039062 C 188.992188 48.390625 187.09375 50.292969 184.746094 50.292969 C 182.382812 50.292969 180.484375 48.390625 180.484375 46.039062 C 180.484375 43.675781 182.382812 41.777344 184.746094 41.777344 "/><path style=" stroke:none;fill-rule:nonzero;fill:#14aac1;fill-opacity:1;" d="M 161.546875 30.789062 C 171.175781 26.714844 178.839844 32.710938 175.546875 38.0625 C 172.25 43.425781 169.234375 40.402344 162.644531 39.164062 C 156.058594 37.929688 151.941406 42.195312 151.941406 42.195312 C 151.941406 42.195312 154.414062 33.8125 161.546875 30.789062 "/><path style=" stroke:none;fill-rule:nonzero;fill:#10879a;fill-opacity:1;" d="M 112.585938 41.800781 C 103.136719 47.6875 91.265625 60.828125 84.835938 83.902344 C 86.691406 75.058594 89.347656 66.761719 92.089844 59.808594 C 95.144531 52.085938 98.304688 45.996094 100.621094 42.601562 C 108.304688 31.339844 120.65625 22.132812 134.101562 28.042969 C 146.148438 33.328125 140.417969 50.019531 129.714844 45.621094 C 129.714844 45.621094 131.21875 39.996094 124.628906 38.207031 C 122.171875 37.535156 117.746094 38.589844 112.609375 41.785156 C 112.597656 41.785156 112.597656 41.800781 112.585938 41.800781 "/><path style=" stroke:none;fill-rule:nonzero;fill:#14aac1;fill-opacity:1;" d="M 105.375 12.574219 C 108.394531 5.707031 114.890625 6.34375 112.609375 13.121094 C 110.316406 19.886719 103.363281 22.550781 101.082031 29.503906 C 101.082031 29.503906 101.6875 24.714844 103.046875 19.484375 C 103.671875 17.132812 104.429688 14.703125 105.375 12.574219 "/><path style=" stroke:none;fill-rule:nonzero;fill:#18cae5;fill-opacity:1;" d="M 182.382812 187.625 C 167.046875 187.46875 146.640625 188.777344 129.4375 190.382812 C 105.914062 192.570312 81.847656 194.765625 67.019531 186.074219 C 63.800781 183.800781 58.851562 180.03125 55.886719 176.375 C 51.21875 170.605469 63.691406 178.976562 88.820312 182.691406 C 112.402344 186.171875 135.742188 186.394531 158.121094 186.855469 C 166.355469 187.011719 174.457031 187.21875 182.382812 187.625 "/><path style=" stroke:none;fill-rule:nonzero;fill:#18cae5;fill-opacity:1;" d="M 91.34375 57.480469 C 96.074219 37.558594 111.09375 25.285156 123.675781 21.449219 C 136.296875 17.605469 139.320312 10.460938 133.828125 7.167969 C 128.339844 3.871094 121.480469 8.539062 107.757812 24.472656 C 106.042969 26.460938 104.484375 28.503906 103.078125 30.558594 L 101.082031 29.503906 C 103.363281 22.550781 110.316406 19.886719 112.609375 13.121094 C 114.890625 6.34375 108.394531 5.707031 105.375 12.574219 C 104.429688 14.703125 103.671875 17.132812 103.046875 19.484375 L 100.652344 18.824219 C 101.3125 15.8125 101.445312 12.308594 102.542969 9.636719 C 104.738281 4.285156 110.777344 2.640625 114.070312 4.003906 C 117.363281 5.386719 113.9375 10.460938 116.679688 10.734375 C 119.425781 11.011719 118.59375 7.988281 123.53125 4.003906 C 128.472656 0.0234375 136.570312 0.992188 141.097656 6.617188 C 145.628906 12.242188 143.839844 19.800781 141.789062 20.351562 C 139.734375 20.898438 138.898438 17.605469 135.75 18.835938 C 132.601562 20.074219 133.003906 22.964844 133.003906 22.964844 C 147.683594 22.132812 148.234375 40.546875 141.644531 45.207031 C 135.058594 49.886719 129.714844 45.621094 129.714844 45.621094 C 140.417969 50.019531 146.148438 33.328125 134.101562 28.042969 C 120.65625 22.132812 108.304688 31.339844 100.621094 42.601562 C 98.304688 45.996094 95.144531 52.085938 92.089844 59.808594 L 90.742188 59.632812 C 90.742188 59.609375 90.75 59.601562 90.75 59.574219 C 90.851562 59.226562 90.917969 58.882812 90.960938 58.554688 C 91.027344 58.246094 91.105469 57.871094 91.210938 57.445312 L 91.34375 57.480469 "/><path style=" stroke:none;fill-rule:nonzero;fill:#14aac1;fill-opacity:1;" d="M 133.828125 7.167969 C 139.320312 10.460938 136.296875 17.605469 123.675781 21.449219 C 111.09375 25.285156 96.074219 37.558594 91.34375 57.480469 L 91.210938 57.445312 C 92.300781 52.820312 95.539062 41.578125 103.078125 30.558594 C 104.484375 28.503906 106.042969 26.460938 107.757812 24.472656 C 121.480469 8.539062 128.339844 3.871094 133.828125 7.167969 "/><path style=" stroke:none;fill-rule:nonzero;fill:#18cae5;fill-opacity:1;" d="M 127.703125 172.550781 C 127.660156 172.527344 127.613281 172.515625 127.570312 172.503906 C 123.925781 171.265625 120.359375 169.859375 116.878906 168.285156 C 116.867188 168.285156 116.859375 168.277344 116.847656 168.277344 C 93.921875 157.894531 75.195312 140.324219 68.785156 114.84375 C 59.453125 77.761719 71.671875 50.566406 76.742188 45.753906 C 81.816406 40.953125 84.429688 43.976562 84.429688 43.976562 C 88.6875 40.402344 88.402344 35.460938 87.445312 28.042969 C 86.492188 20.625 92.242188 16.375 95.40625 18.574219 C 98.570312 20.769531 95.679688 25.023438 95.679688 25.023438 C 98.832031 24.328125 100.007812 21.824219 100.652344 18.824219 L 103.046875 19.484375 C 101.6875 24.714844 101.082031 29.503906 101.082031 29.503906 L 103.078125 30.558594 C 95.539062 41.578125 92.300781 52.820312 91.210938 57.445312 C 91.105469 57.871094 91.027344 58.246094 90.960938 58.554688 C 92.101562 49.941406 78.71875 46.074219 73.449219 63.75 C 67.960938 82.15625 63.023438 117.316406 94.035156 150.550781 C 102.277344 159.375 113.015625 165.792969 125.078125 170.628906 C 126.386719 171.144531 127.714844 171.648438 129.050781 172.144531 L 129.066406 172.144531 C 134.726562 174.210938 140.644531 175.957031 146.71875 177.460938 C 140.273438 176.285156 133.882812 174.648438 127.703125 172.550781 "/><path style=" stroke:none;fill-rule:nonzero;fill:#14aac1;fill-opacity:1;" d="M 158.167969 184.0625 C 158.167969 184.0625 102.542969 182.054688 68.511719 165.570312 C 34.476562 149.089844 26.058594 135.90625 23.863281 120.699219 C 21.933594 107.359375 25.742188 103.375 32.546875 111.601562 C 33.742188 113.503906 35.09375 115.402344 36.609375 117.292969 C 56.257812 145.851562 107.296875 177.769531 158.167969 184.0625 "/><path style=" stroke:none;fill-rule:nonzero;fill:#18cae5;fill-opacity:1;" d="M 125.113281 170.527344 C 122.390625 169.433594 93.078125 157.023438 84.703125 126.65625 C 80.945312 113.054688 81.902344 97.792969 84.835938 83.902344 C 91.265625 60.828125 103.136719 47.6875 112.585938 41.800781 C 112.597656 41.800781 112.597656 41.785156 112.609375 41.785156 C 118.382812 38.921875 123.828125 41.578125 124.914062 45.074219 C 126.144531 49.050781 125.464844 53.863281 119.832031 57.84375 L 119.886719 57.929688 C 108.722656 64.949219 98.390625 75.960938 92.386719 92.320312 C 79.265625 128.117188 98.953125 159.332031 129.050781 172.144531 C 127.714844 171.648438 126.386719 171.144531 125.078125 170.628906 L 125.113281 170.527344 "/><path style=" stroke:none;fill-rule:nonzero;fill:#14aac1;fill-opacity:1;" d="M 84.835938 83.902344 C 81.902344 97.792969 80.945312 113.054688 84.703125 126.65625 C 93.078125 157.023438 122.390625 169.433594 125.113281 170.527344 L 125.078125 170.628906 C 113.015625 165.792969 102.277344 159.375 94.035156 150.550781 C 63.023438 117.316406 67.960938 82.15625 73.449219 63.75 C 78.71875 46.074219 92.101562 49.941406 90.960938 58.554688 C 90.839844 59.09375 90.773438 59.445312 90.75 59.574219 C 90.75 59.601562 90.742188 59.609375 90.742188 59.632812 L 92.089844 59.808594 C 89.347656 66.761719 86.691406 75.058594 84.835938 83.902344 "/><path style=" stroke:none;fill-rule:nonzero;fill:#18cae5;fill-opacity:1;" d="M 116.878906 168.285156 C 120.359375 169.859375 123.925781 171.265625 127.570312 172.503906 C 103.410156 164.714844 63.152344 145.148438 40.515625 121.710938 C 39.097656 120.25 37.808594 118.777344 36.609375 117.292969 C 36.246094 116.777344 35.90625 116.261719 35.578125 115.753906 C 34.523438 114.128906 33.511719 112.746094 32.546875 111.601562 C 18.617188 89.394531 25.972656 67.101562 33.105469 65.675781 C 41.339844 64.027344 31.734375 83.804688 44.632812 107.152344 C 54.886719 125.71875 76.6875 151.660156 116.847656 168.277344 C 116.859375 168.277344 116.867188 168.285156 116.878906 168.285156 "/><path style=" stroke:none;fill-rule:nonzero;fill:#18cae5;fill-opacity:1;" d="M 78.203125 20.164062 C 81.78125 28.382812 75.164062 38.601562 74.832031 39.097656 C 74.910156 38.632812 76.027344 31.84375 71.253906 28.230469 C 66.316406 24.472656 60.550781 21.261719 63.296875 16.59375 C 66.039062 11.921875 74.546875 11.746094 78.203125 20.164062 "/><path style=" stroke:none;fill-rule:nonzero;fill:#18cae5;fill-opacity:1;" d="M 54.601562 30.425781 C 56.25 28.40625 71.066406 32.4375 69.246094 48.917969 C 67.414062 65.398438 44.90625 78.769531 61.375 111.910156 C 61.375 111.910156 50.582031 100.558594 48.75 82.242188 C 46.917969 63.9375 54.601562 51.117188 54.789062 41.777344 C 54.972656 32.4375 52.953125 32.4375 54.601562 30.425781 "/></g></svg>
